<svg width="60" height="70" viewBox="0 0 60 70" fill="none" xmlns="http://www.w3.org/2000/svg">
<path d="M12.5 22.4981C12.5 17.8568 14.3437 13.4056 17.6256 10.1237C20.9075 6.84181 25.3587 4.99807 30 4.99807C34.6413 4.99807 39.0925 6.84181 42.3744 10.1237C45.6563 13.4056 47.5 17.8568 47.5 22.4981C47.5 23.1611 47.7634 23.797 48.2322 24.2658C48.7011 24.7347 49.337 24.9981 50 24.9981C50.663 24.9981 51.2989 24.7347 51.7678 24.2658C52.2366 23.797 52.5 23.1611 52.5 22.4981C52.4997 18.6609 51.518 14.8876 49.6483 11.5367C47.7786 8.18586 45.083 5.36886 41.8178 3.35344C38.5525 1.33803 34.826 0.191183 30.9926 0.0219075C27.1591 -0.147368 23.3461 0.666554 19.9159 2.38631C16.4857 4.10607 13.5523 6.67451 11.3945 9.84751C9.23674 13.0205 7.9263 16.6926 7.58775 20.5148C7.24919 24.3371 7.89378 28.1823 9.46024 31.6852C11.0267 35.1881 13.463 38.2322 16.5375 40.5281C19.1739 42.4975 22.2103 43.8646 25.4325 44.5331C25.8801 45.537 26.6461 46.3655 27.6119 46.8904C28.5778 47.4152 29.6896 47.6071 30.7755 47.4365C31.8614 47.2658 32.8608 46.742 33.6191 45.9462C34.3774 45.1504 34.8523 44.1269 34.9703 43.034C35.0883 41.9411 34.8429 40.8398 34.2721 39.9004C33.7012 38.9611 32.8367 38.236 31.8122 37.8374C30.7878 37.4388 29.6606 37.3889 28.605 37.6954C27.5493 38.002 26.6241 38.6478 25.9725 39.5331C22.1365 38.6259 18.7191 36.4502 16.2739 33.3584C13.8287 30.2666 12.4989 26.4399 12.5 22.4981ZM15 22.4981C15.001 19.7385 15.7632 17.0328 17.2027 14.6785C18.6423 12.3242 20.7033 10.4126 23.1592 9.15413C25.615 7.89563 28.3704 7.33899 31.1222 7.54544C33.874 7.7519 36.5155 8.71345 38.7561 10.3243C40.9967 11.9351 42.7495 14.1328 43.8216 16.6756C44.8937 19.2183 45.2437 22.0075 44.8329 24.7363C44.4221 27.4651 43.2665 30.0276 41.4933 32.1421C39.7201 34.2565 37.398 35.8407 34.7825 36.7206C33.4374 35.6072 31.7461 34.998 30 34.9981C28.1825 34.9981 26.5175 35.6456 25.2175 36.7206C22.2394 35.7188 19.651 33.807 17.8178 31.2552C15.9845 28.7033 14.9989 25.6402 15 22.4981ZM30 12.4981C27.3478 12.4981 24.8043 13.5516 22.9289 15.427C21.0536 17.3024 20 19.8459 20 22.4981C20 25.1502 21.0536 27.6938 22.9289 29.5691C24.8043 31.4445 27.3478 32.4981 30 32.4981C32.6522 32.4981 35.1957 31.4445 37.0711 29.5691C38.9464 27.6938 40 25.1502 40 22.4981C40 19.8459 38.9464 17.3024 37.0711 15.427C35.1957 13.5516 32.6522 12.4981 30 12.4981ZM8.75 39.9981H12.1475C14.1572 42.0513 16.5057 43.7427 19.09 44.9981H8.75C7.75544 44.9981 6.80161 45.3932 6.09835 46.0964C5.39509 46.7997 5 47.7535 5 48.7481V49.9981C5 53.6806 7.35 57.3706 11.8975 60.2631C16.415 63.1381 22.8075 64.9981 29.9975 64.9981C37.1925 64.9981 43.585 63.1381 48.1025 60.2631C52.6525 57.3731 55 53.6781 55 49.9981V48.7481C55 47.7535 54.6049 46.7997 53.9016 46.0964C53.1984 45.3932 52.2446 44.9981 51.25 44.9981H37.075C37.6469 43.3805 37.6469 41.6157 37.075 39.9981H51.25C53.5706 39.9981 55.7962 40.9199 57.4372 42.5609C59.0781 44.2018 60 46.4274 60 48.7481V49.9981C60 55.9806 56.1925 61.0406 50.7875 64.4806C45.3525 67.9406 37.995 69.9981 30 69.9981C22.005 69.9981 14.65 67.9406 9.2125 64.4806C3.8075 61.0406 0 55.9806 0 49.9981V48.7481C0 46.4274 0.921873 44.2018 2.56282 42.5609C4.20376 40.9199 6.42936 39.9981 8.75 39.9981Z" fill="black"/>
</svg>
